<svg width="116" height="23" viewBox="0 0 116 23" fill="none" xmlns="http://www.w3.org/2000/svg">
<path d="M6.35516 4.06314H0V0.416733H17.7806V4.06314H10.9392V22.3993H6.35516V4.06314Z" fill="white"/>
<path d="M25.5593 7.67481V22.3993H21.0794V0.416733H24.8647C28.569 5.2323 32.2501 10.291 35.9081 15.5927V0.416733H40.4574V22.3993H36.5679C34.3917 19.8295 30.7221 14.9213 25.5593 7.67481Z" fill="white"/>
<path d="M46.006 22.3646V0.45146C47.7655 0.150487 49.8955 0 52.3959 0C55.2899 0 57.443 0.682978 58.8552 2.04893C59.9665 3.13707 60.5222 4.57247 60.5222 6.35516C60.5222 7.44329 60.0707 8.43882 59.1678 9.34174C58.2649 10.2215 57.2578 10.6614 56.1465 10.6614V10.6961C57.6745 10.8582 58.8784 11.4486 59.7582 12.4672C60.6611 13.4859 61.1125 14.7708 61.1125 16.322C61.1125 18.4983 60.198 20.1652 58.369 21.3228C56.7716 22.3183 54.6416 22.8161 51.9792 22.8161C49.664 22.8161 47.6729 22.6656 46.006 22.3646ZM50.5553 3.8895V8.95973H53.1252C55.0699 8.95973 56.0423 8.13785 56.0423 6.49407C56.0423 4.66508 54.8616 3.72744 52.5001 3.68113H52.3959C51.8171 3.68113 51.2036 3.75059 50.5553 3.8895ZM50.5553 12.6061V18.9613C51.1341 19.1465 51.956 19.2391 53.021 19.2391C55.2667 19.2391 56.3896 18.2552 56.3896 16.2873C56.3896 13.8332 55.232 12.6061 52.9168 12.6061H50.5553Z" fill="white"/>
<path d="M80.9659 19.9337C79.0443 21.8553 76.787 22.8161 74.194 22.8161C70.4666 22.8161 67.6884 21.427 65.8594 18.6488C64.5397 16.6577 63.8799 14.3194 63.8799 11.6338C63.8799 8.13785 64.7828 5.32491 66.5887 3.19494C68.3713 1.06498 70.8486 0 74.0204 0C76.2429 0 78.4655 0.937647 80.6881 2.81294L78.917 5.69534C77.25 4.49144 75.7336 3.8895 74.3676 3.8895C72.4692 3.8895 70.9991 4.68823 69.9572 6.28571C69.0543 7.65166 68.6029 9.43435 68.6029 11.6338C68.6029 13.5785 69.1353 15.2454 70.2003 16.6345C71.3348 18.0931 72.8512 18.8224 74.7496 18.8224C75.9998 18.8224 77.4816 18.2783 79.1948 17.1902L80.9659 19.9337Z" fill="white"/>
<path d="M85.9585 17.659L89.657 22.3993H88.0075L84.8473 18.1626L84.1006 22.3993H82.8851L85.1598 9.55011H86.3753L85.0209 17.1555L89.6049 12.9187H91.2892L85.9585 17.659Z" fill="white"/>
<path d="M97.0274 12.7798C97.8262 12.7798 98.5092 12.9361 99.0764 13.2486C99.6436 13.5496 100.072 13.9663 100.361 14.4988C100.662 15.0313 100.813 15.639 100.813 16.322C100.813 16.6345 100.79 16.9124 100.743 17.1555C100.674 17.5027 100.604 17.8153 100.535 18.0931H92.6691C92.6344 18.3131 92.617 18.5214 92.617 18.7182C92.617 19.6096 92.8833 20.2983 93.4158 20.7845C93.9598 21.2707 94.6486 21.5138 95.4821 21.5138C96.2808 21.5138 96.9811 21.3228 97.5831 20.9408C98.185 20.5588 98.6249 20.0436 98.9027 19.3954H100.205C99.8114 20.3215 99.1806 21.0797 98.3124 21.6701C97.4557 22.2489 96.4544 22.5382 95.3084 22.5382C94.1277 22.5382 93.1785 22.2025 92.4608 21.5311C91.7546 20.8482 91.4016 19.9221 91.4016 18.7529C91.4016 18.4057 91.4363 18.041 91.5057 17.659C91.6794 16.6751 92.0267 15.8127 92.5476 15.0718C93.0801 14.3309 93.7341 13.7637 94.5097 13.3701C95.2853 12.9766 96.1245 12.7798 97.0274 12.7798ZM99.4931 17.1902C99.551 16.8661 99.5799 16.594 99.5799 16.3741C99.5799 15.5522 99.3195 14.9213 98.7986 14.4814C98.2776 14.0415 97.612 13.8216 96.8017 13.8216C96.2113 13.8216 95.6441 13.9489 95.1001 14.2036C94.556 14.4583 94.0814 14.8403 93.6762 15.3496C93.2711 15.859 92.9932 16.4725 92.8428 17.1902H99.4931Z" fill="white"/>
<path d="M104.582 14.8113C104.964 14.1515 105.462 13.6422 106.075 13.2833C106.689 12.9245 107.401 12.745 108.211 12.745L107.985 14.0126H107.638C106.804 14.0126 106.087 14.2268 105.485 14.6551C104.883 15.0834 104.466 15.7895 104.235 16.7735L103.245 22.3993H102.029L103.696 12.9187H104.912L104.582 14.8113Z" fill="white"/>
<path d="M111.481 22.5382C110.52 22.5382 109.738 22.3183 109.137 21.8784C108.535 21.427 108.234 20.8134 108.234 20.0379C108.234 19.8989 108.239 19.7948 108.251 19.7253H109.432C109.385 20.281 109.547 20.7266 109.918 21.0623C110.288 21.398 110.832 21.5659 111.55 21.5659C112.279 21.5659 112.864 21.4154 113.304 21.1144C113.744 20.8019 113.964 20.3909 113.964 19.8816C113.964 19.5806 113.871 19.3259 113.686 19.1176C113.501 18.9092 113.269 18.7414 112.991 18.614C112.725 18.4751 112.349 18.3188 111.863 18.1452C111.261 17.9253 110.775 17.7227 110.404 17.5375C110.045 17.3407 109.733 17.0744 109.466 16.7387C109.212 16.3915 109.084 15.9574 109.084 15.4364C109.084 14.9155 109.235 14.4525 109.536 14.0473C109.837 13.6422 110.248 13.3296 110.769 13.1097C111.301 12.8897 111.903 12.7798 112.575 12.7798C113.512 12.7798 114.276 13.0113 114.867 13.4743C115.469 13.9374 115.77 14.5509 115.77 15.3149C115.77 15.477 115.764 15.5985 115.752 15.6795H114.606C114.618 15.6332 114.624 15.558 114.624 15.4538C114.624 14.9445 114.421 14.5335 114.016 14.221C113.622 13.9084 113.113 13.7522 112.488 13.7522C111.863 13.7522 111.342 13.9026 110.925 14.2036C110.52 14.493 110.317 14.8866 110.317 15.3844C110.317 15.7201 110.416 16.0037 110.612 16.2352C110.809 16.4551 111.052 16.6345 111.342 16.7735C111.631 16.9124 112.019 17.0744 112.505 17.2596C113.084 17.4796 113.547 17.6822 113.894 17.8674C114.253 18.0526 114.554 18.3073 114.797 18.6314C115.04 18.9555 115.162 19.3607 115.162 19.8469C115.162 20.6687 114.82 21.3228 114.137 21.809C113.454 22.2952 112.569 22.5382 111.481 22.5382Z" fill="white"/>
</svg>
