<svg width="258" height="76" viewBox="0 0 258 76" fill="none" xmlns="http://www.w3.org/2000/svg">
<rect width="226" height="76" rx="20" fill="white"/>
<g clip-path="url(#clip0_104_48818)">
<path d="M44.8108 56.6216C55.1997 56.6216 63.6216 48.1997 63.6216 37.8108C63.6216 27.4219 55.1997 19 44.8108 19C34.4219 19 26 27.4219 26 37.8108C26 48.1997 34.4219 56.6216 44.8108 56.6216Z" fill="#3624FF"/>
<path d="M44.8108 56.6216C55.1997 56.6216 63.6216 48.1997 63.6216 37.8108C63.6216 27.4219 55.1997 19 44.8108 19C34.4219 19 26 27.4219 26 37.8108C26 48.1997 34.4219 56.6216 44.8108 56.6216Z" fill="#3624FF"/>
<path d="M43.7656 26.5243H37.4954L48.9909 38.0198L37.4954 49.5153H43.7656L55.2612 38.0198L43.7656 26.5243Z" fill="white"/>
<mask id="mask0_104_48818" style="mask-type:alpha" maskUnits="userSpaceOnUse" x="26" y="19" width="38" height="38">
<path d="M44.8108 56.6216C55.1997 56.6216 63.6216 48.1997 63.6216 37.8108C63.6216 27.4219 55.1997 19 44.8108 19C34.4219 19 26 27.4219 26 37.8108C26 48.1997 34.4219 56.6216 44.8108 56.6216Z" fill="#C4C4C4"/>
</mask>
<g mask="url(#mask0_104_48818)">
</g>
</g>
<path d="M83.8762 31.4098H77.521V27.7634H95.3016V31.4098H88.4602V49.746H83.8762V31.4098Z" fill="#171717"/>
<path d="M103.08 35.0214V49.746H98.6004V27.7634H102.386C106.09 32.5789 109.771 37.6376 113.429 42.9393V27.7634H117.978V49.746H114.089C111.913 47.1761 108.243 42.2679 103.08 35.0214Z" fill="#171717"/>
<path d="M123.527 49.7112V27.7981C125.287 27.4971 127.416 27.3466 129.917 27.3466C132.811 27.3466 134.964 28.0296 136.376 29.3956C137.488 30.4837 138.043 31.9191 138.043 33.7018C138.043 34.7899 137.592 35.7854 136.689 36.6884C135.786 37.5681 134.779 38.008 133.667 38.008V38.0427C135.195 38.2048 136.399 38.7952 137.279 39.8138C138.182 40.8325 138.634 42.1174 138.634 43.6686C138.634 45.8449 137.719 47.5118 135.89 48.6694C134.293 49.6649 132.163 50.1627 129.5 50.1627C127.185 50.1627 125.194 50.0122 123.527 49.7112ZM128.076 31.2361V36.3064H130.646C132.591 36.3064 133.563 35.4845 133.563 33.8407C133.563 32.0117 132.383 31.0741 130.021 31.0278H129.917C129.338 31.0278 128.725 31.0972 128.076 31.2361ZM128.076 39.9528V46.3079C128.655 46.4931 129.477 46.5857 130.542 46.5857C132.788 46.5857 133.911 45.6018 133.911 43.6339C133.911 41.1798 132.753 39.9528 130.438 39.9528H128.076Z" fill="#171717"/>
<path d="M158.487 47.2803C156.565 49.2019 154.308 50.1627 151.715 50.1627C147.988 50.1627 145.209 48.7736 143.38 45.9954C142.061 44.0043 141.401 41.666 141.401 38.9804C141.401 35.4845 142.304 32.6715 144.11 30.5416C145.892 28.4116 148.37 27.3466 151.541 27.3466C153.764 27.3466 155.987 28.2843 158.209 30.1596L156.438 33.042C154.771 31.8381 153.255 31.2361 151.889 31.2361C149.99 31.2361 148.52 32.0349 147.478 33.6323C146.575 34.9983 146.124 36.781 146.124 38.9804C146.124 40.9251 146.656 42.5921 147.721 43.9812C148.856 45.4397 150.372 46.169 152.271 46.169C153.521 46.169 155.003 45.6249 156.716 44.5368L158.487 47.2803Z" fill="#171717"/>
<path d="M163.48 45.0056L167.178 49.746H165.528L162.368 45.5092L161.622 49.746H160.406L162.681 36.8967H163.896L162.542 44.5021L167.126 40.2653H168.81L163.48 45.0056Z" fill="#171717"/>
<path d="M174.548 40.1264C175.347 40.1264 176.03 40.2827 176.597 40.5952C177.165 40.8962 177.593 41.3129 177.882 41.8454C178.183 42.3779 178.334 42.9856 178.334 43.6686C178.334 43.9812 178.311 44.259 178.264 44.5021C178.195 44.8494 178.125 45.1619 178.056 45.4397H170.19C170.155 45.6597 170.138 45.868 170.138 46.0648C170.138 46.9562 170.404 47.6449 170.937 48.1311C171.481 48.6173 172.17 48.8604 173.003 48.8604C173.802 48.8604 174.502 48.6694 175.104 48.2874C175.706 47.9054 176.146 47.3903 176.424 46.742H177.726C177.332 47.6681 176.702 48.4263 175.833 49.0167C174.977 49.5955 173.975 49.8849 172.829 49.8849C171.649 49.8849 170.699 49.5492 169.982 48.8778C169.276 48.1948 168.923 47.2687 168.923 46.0996C168.923 45.7523 168.957 45.3876 169.027 45.0056C169.2 44.0217 169.548 43.1593 170.069 42.4184C170.601 41.6776 171.255 41.1103 172.031 40.7168C172.806 40.3232 173.646 40.1264 174.548 40.1264ZM177.014 44.5368C177.072 44.2127 177.101 43.9407 177.101 43.7207C177.101 42.8988 176.84 42.2679 176.32 41.8281C175.799 41.3882 175.133 41.1682 174.323 41.1682C173.732 41.1682 173.165 41.2956 172.621 41.5502C172.077 41.8049 171.602 42.1869 171.197 42.6962C170.792 43.2056 170.514 43.8191 170.364 44.5368H177.014Z" fill="#171717"/>
<path d="M182.103 42.158C182.485 41.4981 182.983 40.9888 183.596 40.6299C184.21 40.2711 184.922 40.0917 185.732 40.0917L185.506 41.3592H185.159C184.325 41.3592 183.608 41.5734 183.006 42.0017C182.404 42.43 181.987 43.1361 181.756 44.1201L180.766 49.746H179.55L181.217 40.2653H182.433L182.103 42.158Z" fill="#171717"/>
<path d="M189.002 49.8849C188.041 49.8849 187.259 49.6649 186.658 49.225C186.056 48.7736 185.755 48.1601 185.755 47.3845C185.755 47.2456 185.76 47.1414 185.772 47.0719H186.953C186.906 47.6276 187.068 48.0732 187.439 48.4089C187.809 48.7446 188.353 48.9125 189.071 48.9125C189.8 48.9125 190.385 48.762 190.825 48.461C191.265 48.1485 191.485 47.7375 191.485 47.2282C191.485 46.9272 191.392 46.6726 191.207 46.4642C191.022 46.2558 190.79 46.088 190.512 45.9606C190.246 45.8217 189.87 45.6655 189.384 45.4918C188.782 45.2719 188.296 45.0693 187.925 44.8841C187.566 44.6873 187.254 44.421 186.987 44.0853C186.733 43.7381 186.605 43.304 186.605 42.7831C186.605 42.2621 186.756 41.7991 187.057 41.394C187.358 40.9888 187.769 40.6763 188.29 40.4563C188.822 40.2364 189.424 40.1264 190.096 40.1264C191.033 40.1264 191.797 40.3579 192.388 40.8209C192.99 41.284 193.291 41.8975 193.291 42.6615C193.291 42.8236 193.285 42.9451 193.273 43.0262H192.127C192.139 42.9799 192.145 42.9046 192.145 42.8004C192.145 42.2911 191.942 41.8801 191.537 41.5676C191.143 41.255 190.634 41.0988 190.009 41.0988C189.384 41.0988 188.863 41.2493 188.446 41.5502C188.041 41.8396 187.838 42.2332 187.838 42.731C187.838 43.0667 187.937 43.3503 188.133 43.5818C188.33 43.8017 188.573 43.9812 188.863 44.1201C189.152 44.259 189.54 44.421 190.026 44.6063C190.605 44.8262 191.068 45.0288 191.415 45.214C191.774 45.3992 192.075 45.6539 192.318 45.978C192.561 46.3021 192.683 46.7073 192.683 47.1935C192.683 48.0154 192.341 48.6694 191.658 49.1556C190.975 49.6418 190.09 49.8849 189.002 49.8849Z" fill="#171717"/>
<defs>
<clipPath id="clip0_104_48818">
<rect width="232" height="37.6216" fill="white" transform="translate(26 19)"/>
</clipPath>
</defs>
</svg>
